<mxfile host="app.diagrams.net" agent="Mozilla/5.0 (X11; Linux x86_64) AppleWebKit/537.36 (KHTML, like Gecko) Chrome/134.0.0.0 Safari/537.36" version="26.1.1">
  <diagram name="Page-1" id="yD7A4Ur1ljaylDGLr1X2">
    <mxGraphModel dx="1368" dy="794" grid="1" gridSize="10" guides="1" tooltips="1" connect="1" arrows="1" fold="1" page="1" pageScale="1" pageWidth="2339" pageHeight="3300" math="0" shadow="0">
      <root>
        <mxCell id="0" />
        <mxCell id="1" parent="0" />
        <mxCell id="6PC8tyypkYT5ATof5jHP-21" value="Trip data" style="swimlane;fontStyle=0;childLayout=stackLayout;horizontal=1;startSize=26;fillColor=none;horizontalStack=0;resizeParent=1;resizeParentMax=0;resizeLast=0;collapsible=1;marginBottom=0;html=1;" parent="1" vertex="1">
          <mxGeometry x="60" y="110" width="160" height="130" as="geometry" />
        </mxCell>
        <mxCell id="6PC8tyypkYT5ATof5jHP-22" value="Start Date" style="text;strokeColor=none;fillColor=none;align=left;verticalAlign=top;spacingLeft=4;spacingRight=4;overflow=hidden;rotatable=0;points=[[0,0.5],[1,0.5]];portConstraint=eastwest;whiteSpace=wrap;html=1;" parent="6PC8tyypkYT5ATof5jHP-21" vertex="1">
          <mxGeometry y="26" width="160" height="26" as="geometry" />
        </mxCell>
        <mxCell id="6PC8tyypkYT5ATof5jHP-23" value="End Date" style="text;strokeColor=none;fillColor=none;align=left;verticalAlign=top;spacingLeft=4;spacingRight=4;overflow=hidden;rotatable=0;points=[[0,0.5],[1,0.5]];portConstraint=eastwest;whiteSpace=wrap;html=1;" parent="6PC8tyypkYT5ATof5jHP-21" vertex="1">
          <mxGeometry y="52" width="160" height="26" as="geometry" />
        </mxCell>
        <mxCell id="6PC8tyypkYT5ATof5jHP-24" value="Origin" style="text;strokeColor=none;fillColor=none;align=left;verticalAlign=top;spacingLeft=4;spacingRight=4;overflow=hidden;rotatable=0;points=[[0,0.5],[1,0.5]];portConstraint=eastwest;whiteSpace=wrap;html=1;" parent="6PC8tyypkYT5ATof5jHP-21" vertex="1">
          <mxGeometry y="78" width="160" height="26" as="geometry" />
        </mxCell>
        <mxCell id="6PC8tyypkYT5ATof5jHP-25" value="Destination" style="text;strokeColor=none;fillColor=none;align=left;verticalAlign=top;spacingLeft=4;spacingRight=4;overflow=hidden;rotatable=0;points=[[0,0.5],[1,0.5]];portConstraint=eastwest;whiteSpace=wrap;html=1;" parent="6PC8tyypkYT5ATof5jHP-21" vertex="1">
          <mxGeometry y="104" width="160" height="26" as="geometry" />
        </mxCell>
        <UserObject label="&lt;font style=&quot;font-size: 17px;&quot;&gt;User Input/Travel requirements&lt;/font&gt;" treeRoot="1" id="6PC8tyypkYT5ATof5jHP-26">
          <mxCell style="whiteSpace=wrap;html=1;align=center;treeFolding=1;treeMoving=1;newEdgeStyle={&quot;edgeStyle&quot;:&quot;elbowEdgeStyle&quot;,&quot;startArrow&quot;:&quot;none&quot;,&quot;endArrow&quot;:&quot;none&quot;};fillColor=#d5e8d4;strokeColor=#82b366;" parent="1" vertex="1">
            <mxGeometry x="30" y="390" width="250" height="60" as="geometry" />
          </mxCell>
        </UserObject>
        <UserObject label="&lt;font style=&quot;font-size: 15px;&quot;&gt;Parsing LLM&lt;/font&gt;" treeRoot="1" id="6PC8tyypkYT5ATof5jHP-27">
          <mxCell style="whiteSpace=wrap;html=1;align=center;treeFolding=1;treeMoving=1;newEdgeStyle={&quot;edgeStyle&quot;:&quot;elbowEdgeStyle&quot;,&quot;startArrow&quot;:&quot;none&quot;,&quot;endArrow&quot;:&quot;none&quot;};fillColor=#f8cecc;strokeColor=#b85450;" parent="1" vertex="1">
            <mxGeometry x="80" y="290" width="120" height="60" as="geometry" />
          </mxCell>
        </UserObject>
        <mxCell id="6PC8tyypkYT5ATof5jHP-36" value="" style="edgeStyle=segmentEdgeStyle;endArrow=classic;html=1;curved=0;rounded=0;endSize=8;startSize=8;exitX=0.4;exitY=0;exitDx=0;exitDy=0;exitPerimeter=0;entryX=0.5;entryY=1;entryDx=0;entryDy=0;" parent="1" source="6PC8tyypkYT5ATof5jHP-26" target="6PC8tyypkYT5ATof5jHP-27" edge="1">
          <mxGeometry width="50" height="50" relative="1" as="geometry">
            <mxPoint x="220" y="380" as="sourcePoint" />
            <mxPoint x="270" y="330" as="targetPoint" />
          </mxGeometry>
        </mxCell>
        <mxCell id="6PC8tyypkYT5ATof5jHP-39" value="" style="edgeStyle=none;orthogonalLoop=1;jettySize=auto;html=1;rounded=0;exitX=0.5;exitY=0;exitDx=0;exitDy=0;" parent="1" source="6PC8tyypkYT5ATof5jHP-27" target="6PC8tyypkYT5ATof5jHP-21" edge="1">
          <mxGeometry width="80" relative="1" as="geometry">
            <mxPoint x="430" y="350" as="sourcePoint" />
            <mxPoint x="510" y="350" as="targetPoint" />
            <Array as="points" />
          </mxGeometry>
        </mxCell>
        <mxCell id="wkmsy3_gl3kjcY7DtleZ-29" value="" style="swimlane;startSize=0;sketch=1;curveFitting=1;jiggle=2;glass=1;" vertex="1" parent="1">
          <mxGeometry x="1160" y="470" width="220" height="256" as="geometry" />
        </mxCell>
        <UserObject label="&lt;font style=&quot;font-size: 17px;&quot;&gt;&lt;b&gt;Search Tool&lt;/b&gt;&lt;/font&gt;" treeRoot="1" id="wkmsy3_gl3kjcY7DtleZ-30">
          <mxCell style="whiteSpace=wrap;html=1;align=center;treeFolding=1;treeMoving=1;newEdgeStyle={&quot;edgeStyle&quot;:&quot;elbowEdgeStyle&quot;,&quot;startArrow&quot;:&quot;none&quot;,&quot;endArrow&quot;:&quot;none&quot;};fillColor=#dae8fc;strokeColor=#6c8ebf;sketch=1;curveFitting=1;jiggle=2;glass=1;" vertex="1" parent="wkmsy3_gl3kjcY7DtleZ-29">
            <mxGeometry x="30" y="16" width="160" height="34" as="geometry" />
          </mxCell>
        </UserObject>
        <mxCell id="wkmsy3_gl3kjcY7DtleZ-31" value="" style="swimlane;startSize=0;sketch=1;curveFitting=1;jiggle=2;glass=1;" vertex="1" parent="wkmsy3_gl3kjcY7DtleZ-29">
          <mxGeometry x="10" y="63" width="200" height="174" as="geometry" />
        </mxCell>
        <UserObject label="Langchain Tool" treeRoot="1" id="wkmsy3_gl3kjcY7DtleZ-32">
          <mxCell style="whiteSpace=wrap;html=1;align=center;treeFolding=1;treeMoving=1;newEdgeStyle={&quot;edgeStyle&quot;:&quot;elbowEdgeStyle&quot;,&quot;startArrow&quot;:&quot;none&quot;,&quot;endArrow&quot;:&quot;none&quot;};fillColor=#ffe6cc;strokeColor=#d79b00;sketch=1;curveFitting=1;jiggle=2;glass=1;" vertex="1" parent="wkmsy3_gl3kjcY7DtleZ-31">
            <mxGeometry x="40" y="23" width="120" height="60" as="geometry" />
          </mxCell>
        </UserObject>
        <UserObject label="DuckDuckGoSearch" treeRoot="1" id="wkmsy3_gl3kjcY7DtleZ-33">
          <mxCell style="whiteSpace=wrap;html=1;align=center;treeFolding=1;treeMoving=1;newEdgeStyle={&quot;edgeStyle&quot;:&quot;elbowEdgeStyle&quot;,&quot;startArrow&quot;:&quot;none&quot;,&quot;endArrow&quot;:&quot;none&quot;};fillColor=#ffe6cc;strokeColor=#d79b00;sketch=1;curveFitting=1;jiggle=2;glass=1;" vertex="1" parent="wkmsy3_gl3kjcY7DtleZ-31">
            <mxGeometry x="25" y="93" width="150" height="60" as="geometry" />
          </mxCell>
        </UserObject>
        <mxCell id="wkmsy3_gl3kjcY7DtleZ-37" value="" style="group" vertex="1" connectable="0" parent="1">
          <mxGeometry x="320" y="220" width="760" height="570" as="geometry" />
        </mxCell>
        <mxCell id="wkmsy3_gl3kjcY7DtleZ-28" value="" style="group;sketch=1;curveFitting=1;jiggle=2;" vertex="1" connectable="0" parent="wkmsy3_gl3kjcY7DtleZ-37">
          <mxGeometry y="100" width="760" height="470" as="geometry" />
        </mxCell>
        <UserObject label="&lt;font style=&quot;font-size: 18px;&quot;&gt;&lt;b&gt;Calling API&amp;nbsp;&lt;/b&gt;&lt;/font&gt;&lt;div&gt;&lt;font style=&quot;font-size: 18px;&quot;&gt;&lt;b&gt;(Python)&lt;/b&gt;&lt;/font&gt;&lt;/div&gt;" treeRoot="1" id="wkmsy3_gl3kjcY7DtleZ-21">
          <mxCell style="whiteSpace=wrap;html=1;align=center;treeFolding=1;treeMoving=1;newEdgeStyle={&quot;edgeStyle&quot;:&quot;elbowEdgeStyle&quot;,&quot;startArrow&quot;:&quot;none&quot;,&quot;endArrow&quot;:&quot;none&quot;};fillColor=#e1d5e7;strokeColor=#9673a6;sketch=1;curveFitting=1;jiggle=2;" vertex="1" parent="wkmsy3_gl3kjcY7DtleZ-28">
            <mxGeometry x="210" y="20" width="370" height="80" as="geometry" />
          </mxCell>
        </UserObject>
        <mxCell id="wkmsy3_gl3kjcY7DtleZ-22" value="" style="swimlane;startSize=0;" vertex="1" parent="wkmsy3_gl3kjcY7DtleZ-28">
          <mxGeometry width="760" height="470" as="geometry" />
        </mxCell>
        <mxCell id="wkmsy3_gl3kjcY7DtleZ-20" value="" style="group" vertex="1" connectable="0" parent="wkmsy3_gl3kjcY7DtleZ-22">
          <mxGeometry x="40" y="140" width="680" height="320" as="geometry" />
        </mxCell>
        <mxCell id="6PC8tyypkYT5ATof5jHP-40" value="" style="swimlane;startSize=0;glass=1;sketch=1;curveFitting=1;jiggle=2;shadow=0;" parent="wkmsy3_gl3kjcY7DtleZ-20" vertex="1">
          <mxGeometry width="200" height="320" as="geometry" />
        </mxCell>
        <UserObject label="&lt;font style=&quot;font-size: 15px;&quot;&gt;&lt;b&gt;Destination Details DB&lt;/b&gt;&lt;/font&gt;" treeRoot="1" id="6PC8tyypkYT5ATof5jHP-41">
          <mxCell style="whiteSpace=wrap;html=1;align=center;treeFolding=1;treeMoving=1;newEdgeStyle={&quot;edgeStyle&quot;:&quot;elbowEdgeStyle&quot;,&quot;startArrow&quot;:&quot;none&quot;,&quot;endArrow&quot;:&quot;none&quot;};fillColor=#fff2cc;strokeColor=#d6b656;glass=1;sketch=1;curveFitting=1;jiggle=2;shadow=0;" parent="6PC8tyypkYT5ATof5jHP-40" vertex="1" collapsed="1">
            <mxGeometry x="10" y="12" width="180" height="48" as="geometry" />
          </mxCell>
        </UserObject>
        <UserObject label="&lt;span&gt;Python Framework for Scraping details of destination (E.g. Sites to be visited, recommended places, activities, etc.)&lt;/span&gt;" treeRoot="1" id="6PC8tyypkYT5ATof5jHP-44">
          <mxCell style="whiteSpace=wrap;html=1;align=center;treeFolding=1;treeMoving=1;newEdgeStyle={&quot;edgeStyle&quot;:&quot;elbowEdgeStyle&quot;,&quot;startArrow&quot;:&quot;none&quot;,&quot;endArrow&quot;:&quot;none&quot;};glass=1;sketch=1;curveFitting=1;jiggle=2;shadow=0;" parent="6PC8tyypkYT5ATof5jHP-40" vertex="1">
            <mxGeometry x="10" y="89" width="180" height="60" as="geometry" />
          </mxCell>
        </UserObject>
        <UserObject label="Vector Embedding&amp;nbsp;" treeRoot="1" id="6PC8tyypkYT5ATof5jHP-45">
          <mxCell style="whiteSpace=wrap;html=1;align=center;treeFolding=1;treeMoving=1;newEdgeStyle={&quot;edgeStyle&quot;:&quot;elbowEdgeStyle&quot;,&quot;startArrow&quot;:&quot;none&quot;,&quot;endArrow&quot;:&quot;none&quot;};glass=1;sketch=1;curveFitting=1;jiggle=2;shadow=0;" parent="6PC8tyypkYT5ATof5jHP-40" vertex="1">
            <mxGeometry x="10" y="170" width="180" height="30" as="geometry" />
          </mxCell>
        </UserObject>
        <mxCell id="6PC8tyypkYT5ATof5jHP-46" value="Store in local DB" style="whiteSpace=wrap;html=1;glass=1;sketch=1;curveFitting=1;jiggle=2;shadow=0;" parent="6PC8tyypkYT5ATof5jHP-40" vertex="1">
          <mxGeometry x="10" y="220" width="180" height="30" as="geometry" />
        </mxCell>
        <mxCell id="6PC8tyypkYT5ATof5jHP-48" value="Vector database" style="whiteSpace=wrap;html=1;glass=1;sketch=1;curveFitting=1;jiggle=2;shadow=0;" parent="6PC8tyypkYT5ATof5jHP-40" vertex="1">
          <mxGeometry x="10" y="270" width="180" height="30" as="geometry" />
        </mxCell>
        <mxCell id="6PC8tyypkYT5ATof5jHP-52" value="=" style="text;html=1;align=center;verticalAlign=middle;resizable=0;points=[];autosize=1;strokeColor=none;fillColor=none;glass=1;sketch=1;curveFitting=1;jiggle=2;shadow=0;" parent="6PC8tyypkYT5ATof5jHP-40" vertex="1">
          <mxGeometry x="80" y="245" width="30" height="30" as="geometry" />
        </mxCell>
        <mxCell id="6PC8tyypkYT5ATof5jHP-51" value="+" style="text;html=1;align=center;verticalAlign=middle;resizable=0;points=[];autosize=1;strokeColor=none;fillColor=none;glass=1;sketch=1;curveFitting=1;jiggle=2;shadow=0;" parent="6PC8tyypkYT5ATof5jHP-40" vertex="1">
          <mxGeometry x="80" y="195" width="30" height="30" as="geometry" />
        </mxCell>
        <mxCell id="6PC8tyypkYT5ATof5jHP-50" value="+" style="text;html=1;align=center;verticalAlign=middle;resizable=0;points=[];autosize=1;strokeColor=none;fillColor=none;container=1;glass=1;sketch=1;curveFitting=1;jiggle=2;shadow=0;" parent="6PC8tyypkYT5ATof5jHP-40" vertex="1">
          <mxGeometry x="80" y="145" width="30" height="30" as="geometry" />
        </mxCell>
        <mxCell id="wkmsy3_gl3kjcY7DtleZ-1" value="" style="swimlane;startSize=0;sketch=1;curveFitting=1;jiggle=2;" vertex="1" parent="wkmsy3_gl3kjcY7DtleZ-20">
          <mxGeometry x="251" width="200" height="280" as="geometry" />
        </mxCell>
        <UserObject label="&lt;font style=&quot;font-size: 16px;&quot;&gt;&lt;b&gt;Travel Mode DB&lt;/b&gt;&lt;/font&gt;" treeRoot="1" id="wkmsy3_gl3kjcY7DtleZ-2">
          <mxCell style="whiteSpace=wrap;html=1;align=center;treeFolding=1;treeMoving=1;newEdgeStyle={&quot;edgeStyle&quot;:&quot;elbowEdgeStyle&quot;,&quot;startArrow&quot;:&quot;none&quot;,&quot;endArrow&quot;:&quot;none&quot;};fillColor=#fff2cc;strokeColor=#d6b656;sketch=1;curveFitting=1;jiggle=2;" vertex="1" parent="wkmsy3_gl3kjcY7DtleZ-1">
            <mxGeometry x="10" y="10" width="180" height="30" as="geometry" />
          </mxCell>
        </UserObject>
        <UserObject label="Python Framework for scraping cheapest mode of transportation with cost of travelling" treeRoot="1" id="wkmsy3_gl3kjcY7DtleZ-3">
          <mxCell style="whiteSpace=wrap;html=1;align=center;treeFolding=1;treeMoving=1;newEdgeStyle={&quot;edgeStyle&quot;:&quot;elbowEdgeStyle&quot;,&quot;startArrow&quot;:&quot;none&quot;,&quot;endArrow&quot;:&quot;none&quot;};sketch=1;curveFitting=1;jiggle=2;" vertex="1" parent="wkmsy3_gl3kjcY7DtleZ-1">
            <mxGeometry x="10" y="50" width="180" height="50" as="geometry" />
          </mxCell>
        </UserObject>
        <UserObject label="Vector Embedding&amp;nbsp;" treeRoot="1" id="wkmsy3_gl3kjcY7DtleZ-4">
          <mxCell style="whiteSpace=wrap;html=1;align=center;treeFolding=1;treeMoving=1;newEdgeStyle={&quot;edgeStyle&quot;:&quot;elbowEdgeStyle&quot;,&quot;startArrow&quot;:&quot;none&quot;,&quot;endArrow&quot;:&quot;none&quot;};glass=1;sketch=1;curveFitting=1;jiggle=2;shadow=0;" vertex="1" parent="wkmsy3_gl3kjcY7DtleZ-1">
            <mxGeometry x="10" y="125" width="180" height="30" as="geometry" />
          </mxCell>
        </UserObject>
        <mxCell id="wkmsy3_gl3kjcY7DtleZ-5" value="Store in local DB" style="whiteSpace=wrap;html=1;glass=1;sketch=1;curveFitting=1;jiggle=2;shadow=0;" vertex="1" parent="wkmsy3_gl3kjcY7DtleZ-1">
          <mxGeometry x="10" y="175" width="180" height="30" as="geometry" />
        </mxCell>
        <mxCell id="wkmsy3_gl3kjcY7DtleZ-6" value="Vector database" style="whiteSpace=wrap;html=1;glass=1;sketch=1;curveFitting=1;jiggle=2;shadow=0;" vertex="1" parent="wkmsy3_gl3kjcY7DtleZ-1">
          <mxGeometry x="10" y="225" width="180" height="30" as="geometry" />
        </mxCell>
        <mxCell id="wkmsy3_gl3kjcY7DtleZ-7" value="+" style="text;html=1;align=center;verticalAlign=middle;resizable=0;points=[];autosize=1;strokeColor=none;fillColor=none;container=1;glass=1;sketch=1;curveFitting=1;jiggle=2;shadow=0;" vertex="1" parent="wkmsy3_gl3kjcY7DtleZ-1">
          <mxGeometry x="80" y="100" width="30" height="30" as="geometry" />
        </mxCell>
        <mxCell id="wkmsy3_gl3kjcY7DtleZ-8" value="+" style="text;html=1;align=center;verticalAlign=middle;resizable=0;points=[];autosize=1;strokeColor=none;fillColor=none;glass=1;sketch=1;curveFitting=1;jiggle=2;shadow=0;" vertex="1" parent="wkmsy3_gl3kjcY7DtleZ-1">
          <mxGeometry x="80" y="155" width="30" height="30" as="geometry" />
        </mxCell>
        <mxCell id="wkmsy3_gl3kjcY7DtleZ-9" value="=" style="text;html=1;align=center;verticalAlign=middle;resizable=0;points=[];autosize=1;strokeColor=none;fillColor=none;glass=1;sketch=1;curveFitting=1;jiggle=2;shadow=0;" vertex="1" parent="wkmsy3_gl3kjcY7DtleZ-1">
          <mxGeometry x="80" y="205" width="30" height="30" as="geometry" />
        </mxCell>
        <mxCell id="wkmsy3_gl3kjcY7DtleZ-11" value="" style="swimlane;startSize=0;sketch=1;curveFitting=1;jiggle=2;rounded=0;glass=1;" vertex="1" parent="wkmsy3_gl3kjcY7DtleZ-20">
          <mxGeometry x="500" width="200" height="265" as="geometry" />
        </mxCell>
        <UserObject label="&lt;b&gt;&lt;font style=&quot;font-size: 14px;&quot;&gt;Stay DB&lt;/font&gt;&lt;/b&gt;" treeRoot="1" id="wkmsy3_gl3kjcY7DtleZ-12">
          <mxCell style="whiteSpace=wrap;html=1;align=center;treeFolding=1;treeMoving=1;newEdgeStyle={&quot;edgeStyle&quot;:&quot;elbowEdgeStyle&quot;,&quot;startArrow&quot;:&quot;none&quot;,&quot;endArrow&quot;:&quot;none&quot;};fillColor=#fff2cc;strokeColor=#d6b656;sketch=1;curveFitting=1;jiggle=2;rounded=0;glass=1;" vertex="1" parent="wkmsy3_gl3kjcY7DtleZ-11">
            <mxGeometry x="10" y="10" width="180" height="30" as="geometry" />
          </mxCell>
        </UserObject>
        <UserObject label="Python Framework for scrapping the cheapest stay and food costing" treeRoot="1" id="wkmsy3_gl3kjcY7DtleZ-13">
          <mxCell style="whiteSpace=wrap;html=1;align=center;treeFolding=1;treeMoving=1;newEdgeStyle={&quot;edgeStyle&quot;:&quot;elbowEdgeStyle&quot;,&quot;startArrow&quot;:&quot;none&quot;,&quot;endArrow&quot;:&quot;none&quot;};sketch=1;curveFitting=1;jiggle=2;rounded=0;glass=1;" vertex="1" parent="wkmsy3_gl3kjcY7DtleZ-11">
            <mxGeometry x="20" y="50" width="160" height="50" as="geometry" />
          </mxCell>
        </UserObject>
        <UserObject label="Vector Embedding&amp;nbsp;" treeRoot="1" id="wkmsy3_gl3kjcY7DtleZ-14">
          <mxCell style="whiteSpace=wrap;html=1;align=center;treeFolding=1;treeMoving=1;newEdgeStyle={&quot;edgeStyle&quot;:&quot;elbowEdgeStyle&quot;,&quot;startArrow&quot;:&quot;none&quot;,&quot;endArrow&quot;:&quot;none&quot;};glass=1;sketch=1;curveFitting=1;jiggle=2;shadow=0;rounded=0;" vertex="1" parent="wkmsy3_gl3kjcY7DtleZ-11">
            <mxGeometry x="10" y="115" width="180" height="30" as="geometry" />
          </mxCell>
        </UserObject>
        <mxCell id="wkmsy3_gl3kjcY7DtleZ-15" value="+" style="text;html=1;align=center;verticalAlign=middle;resizable=0;points=[];autosize=1;strokeColor=none;fillColor=none;glass=1;sketch=1;curveFitting=1;jiggle=2;shadow=0;rounded=0;" vertex="1" parent="wkmsy3_gl3kjcY7DtleZ-11">
          <mxGeometry x="80" y="142" width="30" height="30" as="geometry" />
        </mxCell>
        <mxCell id="wkmsy3_gl3kjcY7DtleZ-16" value="Store in local DB" style="whiteSpace=wrap;html=1;glass=1;sketch=1;curveFitting=1;jiggle=2;shadow=0;rounded=0;" vertex="1" parent="wkmsy3_gl3kjcY7DtleZ-11">
          <mxGeometry x="10" y="165" width="180" height="30" as="geometry" />
        </mxCell>
        <mxCell id="wkmsy3_gl3kjcY7DtleZ-17" value="=" style="text;html=1;align=center;verticalAlign=middle;resizable=0;points=[];autosize=1;strokeColor=none;fillColor=none;glass=1;sketch=1;curveFitting=1;jiggle=2;shadow=0;rounded=0;" vertex="1" parent="wkmsy3_gl3kjcY7DtleZ-11">
          <mxGeometry x="80" y="193" width="30" height="30" as="geometry" />
        </mxCell>
        <mxCell id="wkmsy3_gl3kjcY7DtleZ-18" value="Vector database" style="whiteSpace=wrap;html=1;glass=1;sketch=1;curveFitting=1;jiggle=2;shadow=0;rounded=0;" vertex="1" parent="wkmsy3_gl3kjcY7DtleZ-11">
          <mxGeometry x="10" y="215" width="180" height="30" as="geometry" />
        </mxCell>
        <mxCell id="wkmsy3_gl3kjcY7DtleZ-19" value="+" style="text;html=1;align=center;verticalAlign=middle;resizable=0;points=[];autosize=1;strokeColor=none;fillColor=none;glass=1;sketch=1;curveFitting=1;jiggle=2;shadow=0;rounded=0;" vertex="1" parent="wkmsy3_gl3kjcY7DtleZ-11">
          <mxGeometry x="78" y="95" width="30" height="30" as="geometry" />
        </mxCell>
        <mxCell id="wkmsy3_gl3kjcY7DtleZ-25" style="edgeStyle=orthogonalEdgeStyle;rounded=0;orthogonalLoop=1;jettySize=auto;html=1;exitX=0.5;exitY=0;exitDx=0;exitDy=0;" edge="1" parent="wkmsy3_gl3kjcY7DtleZ-28" source="6PC8tyypkYT5ATof5jHP-40" target="wkmsy3_gl3kjcY7DtleZ-21">
          <mxGeometry relative="1" as="geometry">
            <Array as="points">
              <mxPoint x="140" y="120" />
              <mxPoint x="290" y="120" />
            </Array>
          </mxGeometry>
        </mxCell>
        <mxCell id="wkmsy3_gl3kjcY7DtleZ-26" style="edgeStyle=orthogonalEdgeStyle;rounded=0;orthogonalLoop=1;jettySize=auto;html=1;exitX=0.5;exitY=0;exitDx=0;exitDy=0;" edge="1" parent="wkmsy3_gl3kjcY7DtleZ-28" source="wkmsy3_gl3kjcY7DtleZ-1" target="wkmsy3_gl3kjcY7DtleZ-21">
          <mxGeometry relative="1" as="geometry" />
        </mxCell>
        <mxCell id="wkmsy3_gl3kjcY7DtleZ-27" style="edgeStyle=orthogonalEdgeStyle;rounded=0;orthogonalLoop=1;jettySize=auto;html=1;exitX=0.5;exitY=0;exitDx=0;exitDy=0;entryX=1;entryY=0.5;entryDx=0;entryDy=0;" edge="1" parent="wkmsy3_gl3kjcY7DtleZ-28" source="wkmsy3_gl3kjcY7DtleZ-11" target="wkmsy3_gl3kjcY7DtleZ-21">
          <mxGeometry relative="1" as="geometry" />
        </mxCell>
        <UserObject label="&lt;font style=&quot;font-size: 16px;&quot;&gt;&lt;b&gt;Recommender LLM&lt;/b&gt;&lt;/font&gt;" treeRoot="1" id="wkmsy3_gl3kjcY7DtleZ-35">
          <mxCell style="whiteSpace=wrap;html=1;align=center;treeFolding=1;treeMoving=1;newEdgeStyle={&quot;edgeStyle&quot;:&quot;elbowEdgeStyle&quot;,&quot;startArrow&quot;:&quot;none&quot;,&quot;endArrow&quot;:&quot;none&quot;};fillColor=#b1ddf0;strokeColor=#10739e;glass=1;sketch=1;curveFitting=1;jiggle=2;" vertex="1" parent="wkmsy3_gl3kjcY7DtleZ-37">
            <mxGeometry x="380" width="120" height="60" as="geometry" />
          </mxCell>
        </UserObject>
        <mxCell id="wkmsy3_gl3kjcY7DtleZ-36" style="edgeStyle=orthogonalEdgeStyle;rounded=0;orthogonalLoop=1;jettySize=auto;html=1;exitX=0.5;exitY=0;exitDx=0;exitDy=0;entryX=0.158;entryY=0.95;entryDx=0;entryDy=0;entryPerimeter=0;" edge="1" parent="wkmsy3_gl3kjcY7DtleZ-37" source="wkmsy3_gl3kjcY7DtleZ-22" target="wkmsy3_gl3kjcY7DtleZ-35">
          <mxGeometry relative="1" as="geometry" />
        </mxCell>
        <mxCell id="wkmsy3_gl3kjcY7DtleZ-39" value="" style="edgeStyle=entityRelationEdgeStyle;startArrow=none;endArrow=none;segment=10;curved=1;sourcePerimeterSpacing=0;targetPerimeterSpacing=0;rounded=0;" edge="1" target="wkmsy3_gl3kjcY7DtleZ-38" parent="wkmsy3_gl3kjcY7DtleZ-37">
          <mxGeometry relative="1" as="geometry">
            <mxPoint x="500" y="34" as="sourcePoint" />
          </mxGeometry>
        </mxCell>
        <mxCell id="wkmsy3_gl3kjcY7DtleZ-38" value="&lt;font style=&quot;font-size: 16px;&quot;&gt;&lt;b&gt;Recommended Trip&lt;/b&gt;&lt;/font&gt;" style="whiteSpace=wrap;html=1;rounded=1;arcSize=50;align=center;verticalAlign=middle;strokeWidth=1;autosize=1;spacing=4;treeFolding=1;treeMoving=1;newEdgeStyle={&quot;edgeStyle&quot;:&quot;entityRelationEdgeStyle&quot;,&quot;startArrow&quot;:&quot;none&quot;,&quot;endArrow&quot;:&quot;none&quot;,&quot;segment&quot;:10,&quot;curved&quot;:1,&quot;sourcePerimeterSpacing&quot;:0,&quot;targetPerimeterSpacing&quot;:0};fillColor=#fad9d5;strokeColor=#ae4132;sketch=1;curveFitting=1;jiggle=2;" vertex="1" parent="1">
          <mxGeometry x="870" y="191" width="190" height="40" as="geometry" />
        </mxCell>
      </root>
    </mxGraphModel>
  </diagram>
</mxfile>
